{"title":"The Expatriate 2012 DVDRip FLY635","uid":8085844,"size":732802206,"categoryP":"video","categoryS":"movies","magnet":"?xt=urn:btih:1a2d12bac349c57988c93452b3bd0d3f5109fbdd&amp;dn=The+Expatriate+2012+DVDRip+FLY635&amp;tr=udp%3A%2F%2Ftracker.openbittorrent.com%3A80&amp;tr=udp%3A%2F%2Fopen.demonii.com%3A1337&amp;tr=udp%3A%2F%2Ftracker.coppersurfer.tk%3A6969&amp;tr=udp%3A%2F%2Fexodus.desync.com%3A6969","seeders":1,"leechers":1,"uploader":"FLY635","files":-1,"time":1359615335,"description":"Video\nID                                       : 0\nFormat                                   : MPEG-4 Visual\nFormat profile                           : Advanced Simple@L5\nFormat settings, BVOP                    : 1\nFormat settings, QPel                    : No\nFormat settings, GMC                     : No warppoints\nFormat settings, Matrix                  : Default (MPEG)\nMuxing mode                              : Packed bitstream\nCodec ID                                 : DX50\nCodec ID/Hint                            : DivX 5\nDuration                                 : 1h 39mn\nBit rate                                 : 522 Kbps\nWidth                                    : 720 pixels\nHeight                                   : 304 pixels\nDisplay aspect ratio                     : 2.35:1\nFrame rate                               : 25.000 fps\nColor space                              : YUV\nChroma subsampling                       : 4:2:0\nBit depth                                : 8 bits\nScan type                                : Progressive\nCompression mode                         : Lossy\nBits/(Pixel*Frame)                       : 0.095\nStream size                              : 372 MiB (53%)\nTitle                                    : Video \nWriting library                          : XviD 1.2.1 (UTC 2008-12-04)\n\nAudio\nID                                       : 1\nFormat                                   : AC-3\nFormat/Info                              : Audio Coding 3\nMode extension                           : CM (complete main)\nFormat settings, Endianness              : Big\nCodec ID                                 : 2000\nDuration                                 : 1h 39mn\nBit rate mode                            : Constant\nBit rate                                 : 448 Kbps\nChannel(s)                               : 6 channels\nChannel positions                        : Front: L C R, Side: L R, LFE\nSampling rate                            : 48.0 KHz\nBit depth                                : 16 bits\nCompression mode                         : Lossy\nStream size                              : 320 MiB (46%)\nAlignment                                : Split accross interleaves\nInterleave, duration                     : 40 ms (1.00 video frame)\nInterleave, preload duration             : 500 ms\nTitle                                    : Audio ","torrent":{"xt":"urn:btih:1a2d12bac349c57988c93452b3bd0d3f5109fbdd","amp;dn":"The+Expatriate+2012+DVDRip+FLY635","amp;tr":["udp%3A%2F%2Ftracker.openbittorrent.com%3A80","udp%3A%2F%2Fopen.demonii.com%3A1337","udp%3A%2F%2Ftracker.coppersurfer.tk%3A6969","udp%3A%2F%2Fexodus.desync.com%3A6969"],"infoHash":"1a2d12bac349c57988c93452b3bd0d3f5109fbdd","infoHashBuffer":{"type":"Buffer","data":[26,45,18,186,195,73,197,121,136,201,52,82,179,189,13,63,81,9,251,221]},"announce":[],"urlList":[]}}